HIERARCHY
ROOT Hips
{
  OFFSET -3.2387 97.4658 79.3505
  CHANNELS 6 Xposition Yposition Zposition Zrotation Xrotation Yrotation
  JOINT RightUpLeg
  {
    OFFSET -8.9458 -8.66707 0.101652
    CHANNELS 3 Zrotation Xrotation Yrotation
    JOINT RightLeg
    {
      OFFSET 0 -44.4227 1.3727
      CHANNELS 3 Zrotation Xrotation Yrotation
      JOINT RightFoot
      {
        OFFSET 0.253549 -42.0924 -1.46059
        CHANNELS 3 Zrotation Xrotation Yrotation
        JOINT RightToes
        {
          OFFSET 0.04 -4.41509 8.4991
          CHANNELS 3 Zrotation Xrotation Yrotation
          End Site
          {
            OFFSET -0.08 -0.137448 9.77979
          }
        }
      }
    }
  }
  JOINT Spine
  {
    OFFSET 0 11.8905 0
    CHANNELS 3 Zrotation Xrotation Yrotation
    JOINT Spine1
    {
      OFFSET 0 25.6574 0.127663
      CHANNELS 3 Zrotation Xrotation Yrotation
      JOINT HEad
      {
        OFFSET 0 8.73416 0.011341
        CHANNELS 3 Zrotation Xrotation Yrotation
        End Site
        {
          OFFSET -0.29 12.7742 2.51395
        }
      }
      JOINT LeftShoulder1
      {
        OFFSET 8.99 -0.362252 -0.22
        CHANNELS 3 Zrotation Xrotation Yrotation
        JOINT LeftArm
        {
          OFFSET 10.2827 -0.00338 0.322123
          CHANNELS 3 Zrotation Xrotation Yrotation
          JOINT LeftForeArm
          {
            OFFSET 32.7669 0.099144 -1.42434
            CHANNELS 3 Zrotation Xrotation Yrotation
            JOINT LeftHand
            {
              OFFSET 27.5643 0.085362 1.02216
              CHANNELS 3 Zrotation Xrotation Yrotation
              End Site
              {
                OFFSET 16.7443 -0.6 1.50291
              }
            }
          }
        }
      }
      JOINT RightShoulder
      {
        OFFSET -8.99 -0.362252 -0.22
        CHANNELS 3 Zrotation Xrotation Yrotation
        JOINT RightArm
        {
          OFFSET -10.2827 -0.00338 0.322123
          CHANNELS 3 Zrotation Xrotation Yrotation
          JOINT RightForeArm
          {
            OFFSET -32.8971 0.099144 -1.42434
            CHANNELS 3 Zrotation Xrotation Yrotation
            JOINT RightHand
            {
              OFFSET -27.4921 0.085362 1.02216
              CHANNELS 3 Zrotation Xrotation Yrotation
              End Site
              {
                OFFSET -16.6312 -0.6 1.50291
              }
            }
          }
        }
      }
    }
  }
  JOINT LeftUpLeg
  {
    OFFSET 8.9458 -8.66707 0.101652
    CHANNELS 3 Zrotation Xrotation Yrotation
    JOINT LeftLeg
    {
      OFFSET 0 -44.4227 1.3727
      CHANNELS 3 Zrotation Xrotation Yrotation
      JOINT LeftFoot
      {
        OFFSET -0.253549 -42.0924 -1.46059
        CHANNELS 3 Zrotation Xrotation Yrotation
        JOINT LeftToes
        {
          OFFSET -0.04 -4.41509 8.4991
          CHANNELS 3 Zrotation Xrotation Yrotation
          End Site
          {
            OFFSET 0.08 -0.047448 9.77979
          }
        }
      }
    }
  }
}
MOTION
Frames:	8
Frame Time:	0.0166667
-13.3688 94.5217 76.5748 5.32961 -3.60662 150.835 -19.0664 -10.797 2.49941 9.81436 49.7778 -0.675811 11.3512 -10.4399 -0.0856415 0.0462048 0.000533403 0.662642 1.72498 6.89976 3.48423 3.12809 13.9218 6.70671 -4.31597 -3.38227 15.1072 -5.29669e-031 9.54166e-015 3.18055e-015 -33.1913 -78.8057 5.28577 -50.2448 57.9259 -53.9126 26.0417 11.2309 -33.8525 13.2752 3.51329 18.9815 92.5526 -37.4822 57.2603 -14.71 68.9714 146.362 -13.7163 24.2254 -44.3521 26.9736 -26.9579 -1.29099 10.0189 35.0997 -24.8613 -19.1445 -11.4797 -1.16553 -1.34273e-009 1.56012e-007 -4.85087e-009 
-13.2335 94.0446 76.8122 5.84576 -2.63604 150.696 -18.8456 -9.03273 3.13106 7.52713 48.0352 1.86294 12.3008 -8.54985 -0.206804 0.0462048 0.000533403 0.662642 2.02254 7.51179 3.40614 3.55608 15.1624 6.54396 -4.04568 -3.56106 14.9312 -5.29669e-031 9.54166e-015 3.18055e-015 -33.0958 -76.8633 10.2018 -51.0217 58.0654 -57.5225 25.0385 11.2546 -35.2566 12.854 3.30249 18.1675 93.6 -36.5095 57.1907 -15.0046 69.0278 146.448 -13.6923 24.2221 -44.3928 26.559 -26.4111 -1.9212 10.9199 36.0779 -25.388 -19.0969 -11.8274 -1.21595 -1.34273e-009 1.56012e-007 -4.85088e-009 
-12.9562 93.5057 77.0971 6.27201 -1.74838 150.576 -18.4843 -7.27428 3.45866 5.73442 46.7484 3.52488 12.5313 -7.94711 -0.234895 0.0462048 0.000533403 0.662642 2.34962 7.93637 3.2928 3.88812 16.0375 6.3637 -4.04561 -3.97108 14.8318 0 0 -3.18055e-015 -34.6924 -75.9655 12.0067 -52.0091 58.2755 -60.1671 24.0026 11.3564 -36.4829 12.7125 3.20289 17.7048 94.4468 -35.9289 57.2189 -15.1867 69.3432 146.378 -13.734 24.2235 -44.2854 26.2526 -25.9141 -2.46436 11.7789 36.8804 -25.9378 -19.1298 -11.9584 -1.23755 -1.34273e-009 1.56012e-007 -4.85087e-009 
-12.5342 92.9824 77.4254 6.55848 -1.04266 150.436 -18.0594 -5.68745 3.46152 4.61598 45.9729 4.12686 11.7464 -8.98782 -0.129355 0.0462048 0.000533403 0.662642 2.64496 8.12186 3.21505 4.11214 16.4412 6.2842 -4.3138 -4.39081 14.7522 -7.95139e-016 -3.18055e-015 -0 -37.1309 -76.0795 11.4323 -52.7005 58.7426 -62.4106 23.31 11.4145 -37.4019 12.835 3.20077 17.558 95.0124 -35.7971 57.2828 -15.0676 69.9383 145.998 -13.8971 24.2365 -43.9432 26.1242 -25.4717 -2.9259 12.3804 37.4212 -26.2678 -19.1439 -11.9179 -1.23093 -1.34273e-009 1.56012e-007 -4.85087e-009 
-11.9959 92.5854 77.7646 6.68448 -0.592504 150.274 -17.6129 -4.2955 3.19759 4.09679 45.4473 3.90567 10.1953 -11.5273 0.0494402 0.0462048 0.000533403 0.662642 2.91637 8.04667 3.20502 4.22932 16.3341 6.37225 -4.79837 -4.6309 14.6438 -7.95139e-016 -3.18055e-015 -0 -40.6354 -77.0613 8.38422 -52.7346 59.5563 -64.6437 23.2666 11.3269 -37.8661 13.169 3.27459 17.6524 95.1855 -36.0458 57.2693 -14.6094 70.6616 145.312 -14.1634 24.2609 -43.4032 26.1846 -25.0885 -3.30723 12.5618 37.6161 -26.1536 -19.0093 -11.6247 -1.17212 -1.34274e-009 1.56012e-007 -4.85087e-009 
-11.3834 92.4045 78.09 6.62111 -0.409614 150.116 -17.1942 -3.11429 2.77552 3.91342 44.8795 3.37161 8.55157 -14.9163 0.208354 0.0462048 0.000533403 0.662642 3.112 7.73843 3.27294 4.24015 15.7613 6.61657 -5.41766 -4.58355 14.4813 -1.59028e-015 3.18055e-015 -0 -46.2313 -78.664 2.1898 -51.9067 60.7282 -67.1147 24.0324 11.063 -37.6957 13.6303 3.39848 17.9065 94.8855 -36.5282 57.0603 -13.9176 71.2849 144.463 -14.4667 24.2841 -42.7842 26.3504 -24.7997 -3.62942 12.2692 37.4288 -25.4608 -18.6371 -10.9028 -1.02686 -1.34273e-009 1.56012e-007 -4.85087e-009 
-10.7549 92.5067 78.383 6.35796 -0.459276 150.015 -16.8408 -2.2125 2.30931 3.7714 44.1084 2.99603 7.4674 -18.1433 0.325359 0.0462048 0.000533403 0.662642 3.18417 7.25987 3.39748 4.15367 14.834 6.93988 -6.08017 -4.23479 14.263 7.95139e-016 0 -3.18055e-015 -55.653 -80.4546 -8.40954 -50.1185 62.1695 -70.0245 25.5402 10.6969 -36.7608 14.1224 3.5468 18.2563 94.107 -37.0817 56.5705 -13.1745 71.6115 143.655 -14.7145 24.2948 -42.2308 26.4989 -24.6511 -3.91788 11.5574 36.8446 -24.2112 -18.0068 -9.54451 -0.769371 -1.34273e-009 1.56012e-007 -4.85088e-009 
-10.1742 92.9305 78.6282 5.91239 -0.684627 150.021 -16.5789 -1.70976 1.88876 3.51625 43.1784 2.97343 7.2304 -20.2814 0.440587 0.0462048 0.000533403 0.662642 3.12378 6.68521 3.53637 3.98335 13.6932 7.24274 -6.70297 -3.64661 14.0018 -1.59028e-015 -1.59028e-015 -3.18055e-015 -70.1322 -81.8053 -24.1965 -47.3628 63.6805 -73.5327 27.4983 10.3744 -35.1052 14.5601 3.69828 18.6616 92.9381 -37.5824 55.7786 -12.5356 71.5537 143.043 -14.8344 24.2847 -41.8477 26.5331 -24.6778 -4.17385 10.547 35.8656 -22.5937 -17.1797 -7.40597 -0.401232 -1.34273e-009 1.56012e-007 -4.85087e-009 
